{
	"asset":{
		"generator":"Khronos glTF Blender I/O v3.6.27",
		"version":"2.0"
	},
	"extensionsUsed":[
		"KHR_materials_specular",
		"KHR_materials_ior"
	],
	"scene":0,
	"scenes":[
		{
			"name":"Scene",
			"nodes":[
				3,
				4,
				5
			]
		}
	],
	"nodes":[
		{
			"mesh":0,
			"name":"Circle",
			"scale":[
				0.6703506112098694,
				0.6163523197174072,
				0.6703506112098694
			],
			"translation":[
				0,
				0.5153552293777466,
				0
			]
		},
		{
			"mesh":1,
			"name":"Circle.001",
			"scale":[
				1.3400514125823975,
				1.3400514125823975,
				1.3400514125823975
			],
			"translation":[
				0,
				0.5153552293777466,
				0
			]
		},
		{
			"mesh":2,
			"name":"Cone.004",
			"rotation":[
				0.26313912868499756,
				-0.9093214869499207,
				0.21877680718898773,
				0.2367047220468521
			],
			"scale":[
				0.014478262513875961,
				0.1948535442352295,
				0.014478268101811409
			],
			"translation":[
				0.026781082153320312,
				2.2282235622406006,
				0.021541640162467957
			]
		},
		{
			"children":[
				0,
				1,
				2
			],
			"mesh":3,
			"name":"Cylinder",
			"rotation":[
				0,
				0.02777833119034767,
				0,
				0.9996141195297241
			]
		},
		{
			"mesh":4,
			"name":"Cube",
			"translation":[
				0,
				0.5145891308784485,
				0
			]
		},
		{
			"mesh":5,
			"name":"Plane",
			"rotation":[
				0.7071068286895752,
				0,
				0,
				0.7071068286895752
			],
			"scale":[
				8.967059135437012,
				8.967059135437012,
				8.967059135437012
			],
			"translation":[
				-2.563141107559204,
				-0.23140782117843628,
				-1.677092432975769
			]
		}
	],
	"materials":[
		{
			"doubleSided":true,
			"extensions":{
				"KHR_materials_specular":{
					"specularColorFactor":[
						0.6701662639059697,
						0.6701662639059697,
						0.6701662639059697
					]
				},
				"KHR_materials_ior":{
					"ior":1.4500000476837158
				}
			},
			"name":"Material.003",
			"pbrMetallicRoughness":{
				"baseColorFactor":[
					0.004538762383162975,
					0.04696054011583328,
					0.0012651780853047967,
					1
				],
				"metallicFactor":0,
				"roughnessFactor":0.5942028760910034
			}
		},
		{
			"doubleSided":true,
			"name":"Material.002",
			"pbrMetallicRoughness":{
				"baseColorFactor":[
					0.013405132107436657,
					0.004080675076693296,
					0.0012142457999289036,
					1
				],
				"metallicFactor":0
			}
		},
		{
			"doubleSided":true,
			"extensions":{
				"KHR_materials_specular":{
					"specularColorFactor":[
						1.8730288178590286,
						1.8730288178590286,
						1.8730288178590286
					]
				},
				"KHR_materials_ior":{
					"ior":1.4500000476837158
				}
			},
			"name":"Material.004",
			"pbrMetallicRoughness":{
				"baseColorFactor":[
					0.8000000715255737,
					0.7534874081611633,
					0.14505890011787415,
					1
				],
				"metallicFactor":0,
				"roughnessFactor":0.2246376872062683
			}
		},
		{
			"doubleSided":true,
			"name":"Material.001",
			"pbrMetallicRoughness":{
				"baseColorFactor":[
					0.03520578891038895,
					0.00818888284265995,
					0.003960049711167812,
					1
				],
				"roughnessFactor":0.47101449966430664
			}
		},
		{
			"doubleSided":true,
			"name":"Material.005",
			"pbrMetallicRoughness":{
				"baseColorFactor":[
					0.8000000715255737,
					0.047690968960523605,
					0.007091059349477291,
					1
				],
				"metallicFactor":0,
				"roughnessFactor":0.5
			}
		},
		{
			"doubleSided":true,
			"name":"Material.007",
			"pbrMetallicRoughness":{
				"baseColorFactor":[
					0.8000000715255737,
					0.047690968960523605,
					0.007091059349477291,
					1
				],
				"metallicFactor":0
			}
		}
	],
	"meshes":[
		{
			"name":"Circle",
			"primitives":[
				{
					"attributes":{
						"POSITION":0,
						"NORMAL":1,
						"TEXCOORD_0":2
					},
					"indices":3,
					"material":0
				}
			]
		},
		{
			"name":"Circle.001",
			"primitives":[
				{
					"attributes":{
						"POSITION":4,
						"NORMAL":5,
						"TEXCOORD_0":6
					},
					"indices":7,
					"material":1
				}
			]
		},
		{
			"name":"Cone.004",
			"primitives":[
				{
					"attributes":{
						"POSITION":8,
						"NORMAL":9,
						"TEXCOORD_0":10
					},
					"indices":11,
					"material":2
				}
			]
		},
		{
			"name":"Cylinder",
			"primitives":[
				{
					"attributes":{
						"POSITION":12,
						"NORMAL":13,
						"TEXCOORD_0":14
					},
					"indices":15,
					"material":3
				}
			]
		},
		{
			"name":"Cube.001",
			"primitives":[
				{
					"attributes":{
						"POSITION":16,
						"NORMAL":17,
						"TEXCOORD_0":18
					},
					"indices":19,
					"material":4
				}
			]
		},
		{
			"name":"Plane",
			"primitives":[
				{
					"attributes":{
						"POSITION":20,
						"NORMAL":21,
						"TEXCOORD_0":22
					},
					"indices":23,
					"material":5
				}
			]
		}
	],
	"accessors":[
		{
			"bufferView":0,
			"componentType":5126,
			"count":2882,
			"max":[
				1.3748900890350342,
				4.485999584197998,
				1.1812812089920044
			],
			"min":[
				-1.3748902082443237,
				-0.9116052985191345,
				-1.4418092966079712
			],
			"type":"VEC3"
		},
		{
			"bufferView":1,
			"componentType":5126,
			"count":2882,
			"type":"VEC3"
		},
		{
			"bufferView":2,
			"componentType":5126,
			"count":2882,
			"type":"VEC2"
		},
		{
			"bufferView":3,
			"componentType":5123,
			"count":17280,
			"type":"SCALAR"
		},
		{
			"bufferView":4,
			"componentType":5126,
			"count":448,
			"max":[
				1.0295487642288208,
				0.11619537323713303,
				1.0295487642288208
			],
			"min":[
				-1.0295487642288208,
				0.11619537323713303,
				-1.0295487642288208
			],
			"type":"VEC3"
		},
		{
			"bufferView":5,
			"componentType":5126,
			"count":448,
			"type":"VEC3"
		},
		{
			"bufferView":6,
			"componentType":5126,
			"count":448,
			"type":"VEC2"
		},
		{
			"bufferView":7,
			"componentType":5123,
			"count":2490,
			"type":"SCALAR"
		},
		{
			"bufferView":8,
			"componentType":5126,
			"count":11200,
			"max":[
				102.20563507080078,
				7.144147872924805,
				112.07354736328125
			],
			"min":[
				-84.75025939941406,
				-8.823040008544922,
				-86.50621032714844
			],
			"type":"VEC3"
		},
		{
			"bufferView":9,
			"componentType":5126,
			"count":11200,
			"type":"VEC3"
		},
		{
			"bufferView":10,
			"componentType":5126,
			"count":11200,
			"type":"VEC2"
		},
		{
			"bufferView":11,
			"componentType":5123,
			"count":15750,
			"type":"SCALAR"
		},
		{
			"bufferView":12,
			"componentType":5126,
			"count":1030,
			"max":[
				1.5589849948883057,
				1.0324360132217407,
				1.5589849948883057
			],
			"min":[
				-1.5589849948883057,
				-0.7388468384742737,
				-1.5589849948883057
			],
			"type":"VEC3"
		},
		{
			"bufferView":13,
			"componentType":5126,
			"count":1030,
			"type":"VEC3"
		},
		{
			"bufferView":14,
			"componentType":5126,
			"count":1030,
			"type":"VEC2"
		},
		{
			"bufferView":15,
			"componentType":5123,
			"count":3060,
			"type":"SCALAR"
		},
		{
			"bufferView":16,
			"componentType":5126,
			"count":24,
			"max":[
				2.710324764251709,
				-1.211027979850769,
				1.70924711227417
			],
			"min":[
				-2.710324764251709,
				-1.6071261167526245,
				-1.70924711227417
			],
			"type":"VEC3"
		},
		{
			"bufferView":17,
			"componentType":5126,
			"count":24,
			"type":"VEC3"
		},
		{
			"bufferView":18,
			"componentType":5126,
			"count":24,
			"type":"VEC2"
		},
		{
			"bufferView":19,
			"componentType":5123,
			"count":36,
			"type":"SCALAR"
		},
		{
			"bufferView":20,
			"componentType":5126,
			"count":4,
			"max":[
				1,
				0,
				1
			],
			"min":[
				-1,
				0,
				-1
			],
			"type":"VEC3"
		},
		{
			"bufferView":21,
			"componentType":5126,
			"count":4,
			"type":"VEC3"
		},
		{
			"bufferView":22,
			"componentType":5126,
			"count":4,
			"type":"VEC2"
		},
		{
			"bufferView":23,
			"componentType":5123,
			"count":6,
			"type":"SCALAR"
		}
	],
	"bufferViews":[
		{
			"buffer":0,
			"byteLength":34584,
			"byteOffset":0,
			"target":34962
		},
		{
			"buffer":0,
			"byteLength":34584,
			"byteOffset":34584,
			"target":34962
		},
		{
			"buffer":0,
			"byteLength":23056,
			"byteOffset":69168,
			"target":34962
		},
		{
			"buffer":0,
			"byteLength":34560,
			"byteOffset":92224,
			"target":34963
		},
		{
			"buffer":0,
			"byteLength":5376,
			"byteOffset":126784,
			"target":34962
		},
		{
			"buffer":0,
			"byteLength":5376,
			"byteOffset":132160,
			"target":34962
		},
		{
			"buffer":0,
			"byteLength":3584,
			"byteOffset":137536,
			"target":34962
		},
		{
			"buffer":0,
			"byteLength":4980,
			"byteOffset":141120,
			"target":34963
		},
		{
			"buffer":0,
			"byteLength":134400,
			"byteOffset":146100,
			"target":34962
		},
		{
			"buffer":0,
			"byteLength":134400,
			"byteOffset":280500,
			"target":34962
		},
		{
			"buffer":0,
			"byteLength":89600,
			"byteOffset":414900,
			"target":34962
		},
		{
			"buffer":0,
			"byteLength":31500,
			"byteOffset":504500,
			"target":34963
		},
		{
			"buffer":0,
			"byteLength":12360,
			"byteOffset":536000,
			"target":34962
		},
		{
			"buffer":0,
			"byteLength":12360,
			"byteOffset":548360,
			"target":34962
		},
		{
			"buffer":0,
			"byteLength":8240,
			"byteOffset":560720,
			"target":34962
		},
		{
			"buffer":0,
			"byteLength":6120,
			"byteOffset":568960,
			"target":34963
		},
		{
			"buffer":0,
			"byteLength":288,
			"byteOffset":575080,
			"target":34962
		},
		{
			"buffer":0,
			"byteLength":288,
			"byteOffset":575368,
			"target":34962
		},
		{
			"buffer":0,
			"byteLength":192,
			"byteOffset":575656,
			"target":34962
		},
		{
			"buffer":0,
			"byteLength":72,
			"byteOffset":575848,
			"target":34963
		},
		{
			"buffer":0,
			"byteLength":48,
			"byteOffset":575920,
			"target":34962
		},
		{
			"buffer":0,
			"byteLength":48,
			"byteOffset":575968,
			"target":34962
		},
		{
			"buffer":0,
			"byteLength":32,
			"byteOffset":576016,
			"target":34962
		},
		{
			"buffer":0,
			"byteLength":12,
			"byteOffset":576048,
			"target":34963
		}
	],
	"buffers":[
		{
			"byteLength":576060,
			"uri":"data:application/octet-stream;base64,"
		}
	]
}
